Coordinates
version=1
nRows=26
nColumns=24
inDegrees=yes

Units are S.I. units (second, meters, Newtons, ...)
Angles are in degrees.

endheader
time	pelvis_tilt	pelvis_list	pelvis_rotation	pelvis_tx	pelvis_ty	pelvis_tz	hip_flexion_r	hip_adduction_r	hip_rotation_r	knee_angle_r	ankle_angle_r	subtalar_angle_r	mtp_angle_r	hip_flexion_l	hip_adduction_l	hip_rotation_l	knee_angle_l	ankle_angle_l	subtalar_angle_l	mtp_angle_l	lumbar_extension	lumbar_bending	lumbar_rotation
      2.00500000	     11.09666147	     -6.34736432	      6.78443138	      0.26069196	      0.95107060	      0.01403017	     -5.25863885	     11.59456937	    -10.11285272	    -11.65548605	     18.10747779	    -12.93800391	     13.63306431	      7.86207367	     -9.09349068	      0.33147908	    -66.64726823	     11.71996766	     -7.96633115	     28.70836598	    -18.00572927	      8.48235806	      0.26042444
      2.01000000	     11.32581388	     -6.04035263	      6.69163983	      0.26635998	      0.95237058	      0.01433385	     -6.22025280	     11.38238394	     -9.89549630	    -11.10483486	     18.10241801	    -12.89197825	     13.64957291	      7.92188286	     -8.74834529	      0.02795240	    -65.95658231	     12.15976146	     -7.74236367	     28.49174769	    -18.24598707	      8.13054531	      0.23427249
      2.01500000	     11.52533827	     -5.71861099	      6.59974155	      0.27199536	      0.95359275	      0.01462923	     -7.13840797	     11.14598425	     -9.68886009	    -10.57151248	     18.12472273	    -12.84865063	     13.67330307	      8.00070719	     -8.37314911	     -0.25403342	    -65.21006718	     12.57257066	     -7.50427320	     28.29132738	    -18.45656399	      7.75776671	      0.22180503
      2.02000000	     11.74612289	     -5.39462062	      6.49367656	      0.27764588	      0.95480231	      0.01491472	     -8.07399050	     10.89920385	     -9.51102704	    -10.05012907	     18.11232609	    -12.77743914	     13.70558213	      8.02499010	     -8.00811848	     -0.58414489	    -64.38886484	     12.98714620	     -7.31409040	     28.04099020	    -18.68868027	      7.38535372	      0.17622894
      2.02500000	     11.94407098	     -5.05804287	      6.38589206	      0.28325126	      0.95592593	      0.01519709	     -8.96859846	     10.63059312	     -9.34366247	     -9.55492460	     18.13047430	    -12.69784726	     13.74371132	      8.06118990	     -7.61857640	     -0.89667893	    -63.51367215	     13.38040695	     -7.11664258	     27.78451556	    -18.90003043	      6.99479608	      0.14292382
      2.03000000	     12.12077145	     -4.71532252	      6.27793990	      0.28882161	      0.95696484	      0.01547387	     -9.82544904	     10.34909578	     -9.19509581	     -9.07999451	     18.18166764	    -12.62320296	     13.78179103	      8.10669543	     -7.21376291	     -1.19801836	    -62.58243482	     13.73335402	     -6.93764088	     27.54623105	    -19.09088384	      6.59363888	      0.11516336
      2.03500000	     12.29172178	     -4.36843832	      6.16153483	      0.29438279	      0.95795328	      0.01573559	    -10.66078867	     10.05327920	     -9.07674404	     -8.63184517	     18.21960259	    -12.51308722	     13.81940270	      8.13286837	     -6.80547080	     -1.52091098	    -61.58125917	     14.07409381	     -6.81322955	     27.29252112	    -19.27661008	      6.18744547	      0.07138482
      2.04000000	     12.46364372	     -4.01604883	      6.04272623	      0.29991085	      0.95887498	      0.01598538	    -11.48214048	      9.74529522	     -8.97966578	     -8.20611031	     18.28607066	    -12.39027748	     13.85670688	      8.13978504	     -6.38764836	     -1.84134476	    -60.52008534	     14.38472216	     -6.71995707	     27.03209473	    -19.46587376	      5.77560443	      0.03872010
      2.04500000	     12.61881771	     -3.66044032	      5.92090667	      0.30543365	      0.95973219	      0.01620238	    -12.26497079	      9.42383179	     -8.93263291	     -7.81619702	     18.34044851	    -12.23789899	     13.88820396	      8.13946350	     -5.96301715	     -2.17596020	    -59.38836562	     14.67919192	     -6.68817380	     26.74722349	    -19.63572914	      5.36137076	     -0.00723056
      2.05000000	     12.77014717	     -3.30444512	      5.79961476	      0.31090403	      0.96050155	      0.01642497	    -13.02807906	      9.09920837	     -8.87958194	     -7.44619761	     18.45155475	    -12.07917536	     13.91408491	      8.12927923	     -5.53257257	     -2.49213699	    -58.20039237	     14.93206985	     -6.67480651	     26.48260304	    -19.80748207	      4.94288015	     -0.04037813
      2.05500000	     12.91173854	     -2.94499894	      5.67377858	      0.31637065	      0.96120870	      0.01662413	    -13.76316500	      8.76261210	     -8.86502630	     -7.10672110	     18.56422307	    -11.89508632	     13.92998223	      8.10175727	     -5.09483518	     -2.81780050	    -56.93944766	     15.15843207	     -6.73050464	     26.22036838	    -19.96780799	      4.52036620	     -0.08101040
      2.06000000	     13.05355221	     -2.58509948	      5.54595041	      0.32182650	      0.96185369	      0.01679951	    -14.48120197	      8.41916571	     -8.88757542	     -6.79535818	     18.69138917	    -11.68717502	     13.93178889	      8.04760689	     -4.65643476	     -3.15304550	    -55.60820458	     15.35855210	     -6.82891032	     25.95857354	    -20.12791370	      4.09920817	     -0.11133514
      2.06500000	     13.18716099	     -2.22600230	      5.41339955	      0.32725329	      0.96241797	      0.01696670	    -15.17281776	      8.07038618	     -8.90319861	     -6.51234011	     18.85415748	    -11.47470669	     13.92255323	      7.98032507	     -4.21446283	     -3.48592607	    -54.21160882	     15.51320482	     -6.97920112	     25.72603962	    -20.28390818	      3.67707209	     -0.14536158
      2.07000000	     13.32346386	     -1.86582758	      5.29001967	      0.33268434	      0.96292683	      0.01708581	    -15.85312732	      7.71708756	     -8.98514648	     -6.25381621	     19.01802346	    -11.22521294	     13.89108419	      7.88044354	     -3.76785454	     -3.81639340	    -52.73892019	     15.65134477	     -7.15720007	     25.49806055	    -20.43918815	      3.25956703	     -0.17709760
      2.07500000	     13.44544870	     -1.51674580	      5.13631094	      0.33809082	      0.96334600	      0.01725845	    -16.49739347	      7.36340274	     -8.99507328	     -6.03048321	     19.23259035	    -10.98688643	     13.85883650	      7.76844574	     -3.33585736	     -4.17466429	    -51.19661967	     15.72755033	     -7.41737454	     25.31640075	    -20.58309734	      2.84010900	     -0.20333433
      2.08000000	     13.58049701	     -1.16251564	      4.99222188	      0.34350062	      0.96372869	      0.01737896	    -17.14439651	      7.00219403	     -9.07267851	     -5.82602905	     19.44424886	    -10.71746889	     13.81026889	      7.60744222	     -2.89473784	     -4.53124940	    -49.56979596	     15.78087623	     -7.69748660	     25.15754139	    -20.74062384	      2.42141801	     -0.22683431
      2.08500000	     13.71943872	     -0.81449174	      4.84845649	      0.34892814	      0.96404933	      0.01747142	    -17.78312911	      6.64213230	     -9.18166208	     -5.64552893	     19.67282690	    -10.40735936	     13.74391357	      7.40957537	     -2.45655656	     -4.88796205	    -47.86585425	     15.80120850	     -8.00778583	     25.02010052	    -20.89742506	      2.01129988	     -0.24029999
      2.09000000	     13.88308990	     -0.45068968	      4.72771530	      0.35437852	      0.96434877	      0.01750738	    -18.44358744	      6.26942009	     -9.39641008	     -5.47773053	     19.92742772	    -10.00971795	     13.61238637	      7.14630069	     -2.00029729	     -5.23318681	    -46.07256549	     15.78540714	     -8.28773223	     24.90729849	    -21.08052944	      1.59453399	     -0.29272838
      2.09500000	     14.02522252	     -0.11018866	      4.57008484	      0.35981864	      0.96454588	      0.01757322	    -19.06217552	      5.90418909	     -9.51852643	     -5.34116414	     20.21913738	     -9.65840741	     13.46062048	      6.87451505	     -1.56461231	     -5.61219431	    -44.20665395	     15.72415478	     -8.64175463	     24.84118301	    -21.23982577	      1.19018541	     -0.30374050
      2.10000000	     14.12610086	      0.18724681	      4.36086100	      0.36524174	      0.96462407	      0.01769067	    -19.60583533	      5.55811486	     -9.54409836	     -5.25126257	     20.49385857	     -9.38146884	     13.36567845	      6.61916261	     -1.17650628	     -6.05806576	    -42.27452601	     15.61429712	     -9.06791372	     24.78983460	    -21.35254867	      0.81327581	     -0.22263232
      2.10500000	     14.32055455	      0.53576756	      4.21443526	      0.37073315	      0.96477880	      0.01770293	    -20.27268281	      5.18362715	     -9.75659685	     -5.13465976	     20.76973187	     -8.95085375	     13.20938044	      6.20266154	     -0.72718189	     -6.44146423	    -40.21639342	     15.46284849	     -9.35789630	     24.82105441	    -21.56515618	      0.40665389	     -0.25852120
      2.11000000	     14.41216708	      0.80492274	      3.98465326	      0.37618709	      0.96470959	      0.01781527	    -20.77778249	      4.84885634	     -9.77459516	     -5.09634195	     21.09175382	     -8.65888249	     13.11101390	      5.88781206	     -0.36260689	     -6.93549958	    -38.13012568	     15.29929609	     -9.75682540	     24.83922943	    -21.66170842	      0.05155878	     -0.16709736
      2.11500000	     14.59054275	      1.10587509	      3.79067651	      0.38171143	      0.96469826	      0.01784891	    -21.40196101	      4.49658322	     -9.91063294	     -5.01999976	     21.39166003	     -8.27943927	     12.98709597	      5.42052353	      0.04309090	     -7.39518359	    -35.92895330	     15.08173477	    -10.03821135	     24.92299525	    -21.84855564	     -0.31946705	     -0.13005113
      2.12000000	     14.77435579	      1.39921486	      3.64509081	      0.38726526	      0.96461449	      0.01779178	    -22.02910757	      4.16426845	    -10.14796919	     -4.95527178	     21.72401232	     -7.81510990	     12.77528823	      4.92349125	      0.45183450	     -7.81603491	    -33.66628041	     14.80826697	    -10.23631955	     25.17070200	    -22.03823367	     -0.66547977	     -0.16583188
      2.12500000	     14.91798136	      1.64000183	      3.42892126	      0.39281849	      0.96440958	      0.01781095	    -22.58858449	      3.85313040	    -10.23297117	     -4.92343105	     22.05178602	     -7.45915618	     12.58072562	      4.44057911	      0.80847383	     -8.33280791	    -31.34648828	     14.50349143	    -10.43323850	     25.43855294	    -22.17921857	     -0.98080417	     -0.09269433
      2.13000000	     15.05272426	      1.85161597	      3.21356222	      0.39838826	      0.96411631	      0.01781503	    -23.12786980	      3.56626735	    -10.31179290	     -4.90971099	     22.37181124	     -7.10225553	     12.40422864	      3.94554606	      1.14220719	     -8.87108786	    -28.97832381	     14.17827790	    -10.55012732	     25.75550271	    -22.30730068	     -1.26667184	     -0.01995739
